<mxfile host="app.diagrams.net" modified="2022-07-28T17:37:51.934Z" agent="5.0 (Windows NT 10.0; Win64; x64) AppleWebKit/537.36 (KHTML, like Gecko) Chrome/103.0.0.0 Safari/537.36" etag="Vr-kqUWMSrG7JflyyjyT" version="20.2.2" type="github" pages="4">
  <diagram id="k3XtddSRICdn5ckGxZP9" name="Graveyard">
    <mxGraphModel dx="1369" dy="844" grid="1" gridSize="10" guides="1" tooltips="1" connect="1" arrows="1" fold="1" page="1" pageScale="1" pageWidth="850" pageHeight="1100" math="0" shadow="0">
      <root>
        <mxCell id="0" />
        <mxCell id="1" parent="0" />
        <mxCell id="qbupHraFLRX2WD-IEX-6-1" value="Deck to Graveyard" style="swimlane;" parent="1" vertex="1">
          <mxGeometry x="20" y="20" width="160" height="200" as="geometry" />
        </mxCell>
        <mxCell id="J6CSg8eaZkPXc1e662Wj-21" value="Foolish Burial" style="whiteSpace=wrap;html=1;fillColor=#e1d5e7;strokeColor=#9673a6;" parent="qbupHraFLRX2WD-IEX-6-1" vertex="1">
          <mxGeometry x="20" y="40" width="120" height="60" as="geometry" />
        </mxCell>
        <mxCell id="qbupHraFLRX2WD-IEX-6-2" value="Armageddon Knight" style="whiteSpace=wrap;html=1;fillColor=#ffe6cc;strokeColor=#d79b00;" parent="qbupHraFLRX2WD-IEX-6-1" vertex="1">
          <mxGeometry x="20" y="120" width="120" height="60" as="geometry" />
        </mxCell>
        <mxCell id="clGFGB4gFXvgcVI6caBt-5" value="" style="edgeStyle=orthogonalEdgeStyle;rounded=0;orthogonalLoop=1;jettySize=auto;html=1;" parent="1" source="qbupHraFLRX2WD-IEX-6-3" target="clGFGB4gFXvgcVI6caBt-2" edge="1">
          <mxGeometry relative="1" as="geometry" />
        </mxCell>
        <mxCell id="qbupHraFLRX2WD-IEX-6-3" value="Hand to Graveyard" style="swimlane;" parent="1" vertex="1">
          <mxGeometry x="300" y="20" width="480" height="410" as="geometry" />
        </mxCell>
        <mxCell id="uOeM7xrh9b_xjBoLv8GL-2" value="Morphing Jar" style="whiteSpace=wrap;html=1;fillColor=#e1d5e7;strokeColor=#9673a6;" parent="qbupHraFLRX2WD-IEX-6-3" vertex="1">
          <mxGeometry x="15" y="40" width="120" height="60" as="geometry" />
        </mxCell>
        <mxCell id="uOeM7xrh9b_xjBoLv8GL-3" value="Raigeki Break" style="whiteSpace=wrap;html=1;fillColor=#dae8fc;strokeColor=#6c8ebf;" parent="qbupHraFLRX2WD-IEX-6-3" vertex="1">
          <mxGeometry x="255" y="180" width="120" height="60" as="geometry" />
        </mxCell>
        <mxCell id="uOeM7xrh9b_xjBoLv8GL-5" value="Dark Core" style="whiteSpace=wrap;html=1;fillColor=#dae8fc;strokeColor=#6c8ebf;" parent="qbupHraFLRX2WD-IEX-6-3" vertex="1">
          <mxGeometry x="135" y="180" width="120" height="60" as="geometry" />
        </mxCell>
        <mxCell id="uOeM7xrh9b_xjBoLv8GL-4" value="Twin Twister" style="whiteSpace=wrap;html=1;fillColor=#ffe6cc;strokeColor=#d79b00;" parent="qbupHraFLRX2WD-IEX-6-3" vertex="1">
          <mxGeometry x="15" y="110" width="120" height="60" as="geometry" />
        </mxCell>
        <mxCell id="uOeM7xrh9b_xjBoLv8GL-1" value="Card Destruction" style="whiteSpace=wrap;html=1;fillColor=#e1d5e7;strokeColor=#9673a6;" parent="qbupHraFLRX2WD-IEX-6-3" vertex="1">
          <mxGeometry x="135" y="40" width="120" height="60" as="geometry" />
        </mxCell>
        <mxCell id="clGFGB4gFXvgcVI6caBt-6" value="Cipher Twin Rapter" style="rounded=0;whiteSpace=wrap;html=1;fillColor=#dae8fc;strokeColor=#6c8ebf;" parent="qbupHraFLRX2WD-IEX-6-3" vertex="1">
          <mxGeometry x="15" y="180" width="120" height="60" as="geometry" />
        </mxCell>
        <mxCell id="clGFGB4gFXvgcVI6caBt-8" value="Cards of Consonance" style="whiteSpace=wrap;html=1;fillColor=#ffe6cc;strokeColor=#d79b00;" parent="qbupHraFLRX2WD-IEX-6-3" vertex="1">
          <mxGeometry x="140" y="330" width="120" height="60" as="geometry" />
        </mxCell>
        <mxCell id="clGFGB4gFXvgcVI6caBt-10" value="Pendulum Call" style="whiteSpace=wrap;html=1;fillColor=#e1d5e7;strokeColor=#9673a6;" parent="qbupHraFLRX2WD-IEX-6-3" vertex="1">
          <mxGeometry x="15" y="260" width="120" height="60" as="geometry" />
        </mxCell>
        <mxCell id="LZvBMNbMAwr3HlE0901q-1" value="Galaxy Soldier" style="whiteSpace=wrap;html=1;fillColor=#ffe6cc;strokeColor=#d79b00;" parent="qbupHraFLRX2WD-IEX-6-3" vertex="1">
          <mxGeometry x="15" y="330" width="120" height="60" as="geometry" />
        </mxCell>
        <mxCell id="clGFGB4gFXvgcVI6caBt-2" value="The White Stone of Ancients" style="whiteSpace=wrap;html=1;fillColor=#ffe6cc;strokeColor=#d79b00;" parent="1" vertex="1">
          <mxGeometry x="280" y="510" width="123" height="60" as="geometry" />
        </mxCell>
        <mxCell id="clGFGB4gFXvgcVI6caBt-4" style="edgeStyle=orthogonalEdgeStyle;rounded=0;orthogonalLoop=1;jettySize=auto;html=1;entryX=0;entryY=0.5;entryDx=0;entryDy=0;" parent="1" source="J6CSg8eaZkPXc1e662Wj-21" target="clGFGB4gFXvgcVI6caBt-2" edge="1">
          <mxGeometry relative="1" as="geometry" />
        </mxCell>
        <mxCell id="Z9cp1-32GliG2KIltxgq-1" value="Generic Reborn" style="swimlane;" parent="1" vertex="1">
          <mxGeometry x="620" y="490" width="160" height="260" as="geometry" />
        </mxCell>
        <mxCell id="Z9cp1-32GliG2KIltxgq-2" value="Monster Reborn" style="whiteSpace=wrap;html=1;fillColor=#e1d5e7;strokeColor=#9673a6;" parent="Z9cp1-32GliG2KIltxgq-1" vertex="1">
          <mxGeometry x="16.5" y="40" width="120" height="60" as="geometry" />
        </mxCell>
        <mxCell id="Z9cp1-32GliG2KIltxgq-3" value="Call of the Haunted" style="whiteSpace=wrap;html=1;fillColor=#fff2cc;strokeColor=#d6b656;" parent="Z9cp1-32GliG2KIltxgq-1" vertex="1">
          <mxGeometry x="16.5" y="110" width="120" height="60" as="geometry" />
        </mxCell>
        <mxCell id="Z9cp1-32GliG2KIltxgq-4" value="Back to the Front" style="whiteSpace=wrap;html=1;fillColor=#fff2cc;strokeColor=#d6b656;" parent="Z9cp1-32GliG2KIltxgq-1" vertex="1">
          <mxGeometry x="16.5" y="180" width="120" height="60" as="geometry" />
        </mxCell>
      </root>
    </mxGraphModel>
  </diagram>
  <diagram id="mfH2ATyb_PeCsaHpSg-w" name="Self Burn">
    <mxGraphModel dx="1369" dy="844" grid="1" gridSize="10" guides="1" tooltips="1" connect="1" arrows="1" fold="1" page="1" pageScale="1" pageWidth="850" pageHeight="1100" math="0" shadow="0">
      <root>
        <mxCell id="0" />
        <mxCell id="1" parent="0" />
        <mxCell id="zVy1A3_LeAhqffGLlYCz-1" value="Hailon, the Timelord" style="whiteSpace=wrap;html=1;" parent="1" vertex="1">
          <mxGeometry x="140" y="20" width="120" height="60" as="geometry" />
        </mxCell>
        <mxCell id="zVy1A3_LeAhqffGLlYCz-2" value="Sadion, the Timelord" style="whiteSpace=wrap;html=1;" parent="1" vertex="1">
          <mxGeometry x="20" y="20" width="120" height="60" as="geometry" />
        </mxCell>
      </root>
    </mxGraphModel>
  </diagram>
  <diagram id="QnMWtF5KrqK0FYUh_TBK" name="Stall">
    <mxGraphModel dx="1369" dy="844" grid="1" gridSize="10" guides="1" tooltips="1" connect="1" arrows="1" fold="1" page="1" pageScale="1" pageWidth="850" pageHeight="1100" math="0" shadow="0">
      <root>
        <mxCell id="0" />
        <mxCell id="1" parent="0" />
        <mxCell id="rAXfOTA7ZakSZnf3as3c-17" value="Pain Stall" style="swimlane;" parent="1" vertex="1">
          <mxGeometry x="220" y="40" width="160" height="120" as="geometry" />
        </mxCell>
        <mxCell id="rAXfOTA7ZakSZnf3as3c-18" value="Kuriphoton" style="whiteSpace=wrap;html=1;fillColor=#dae8fc;strokeColor=#6c8ebf;" parent="rAXfOTA7ZakSZnf3as3c-17" vertex="1">
          <mxGeometry x="20" y="40" width="120" height="60" as="geometry" />
        </mxCell>
        <mxCell id="rAXfOTA7ZakSZnf3as3c-19" value="Generic Stall" style="swimlane;startSize=23;" parent="1" vertex="1">
          <mxGeometry x="40" y="40" width="165" height="320" as="geometry" />
        </mxCell>
        <mxCell id="rAXfOTA7ZakSZnf3as3c-20" value="Swords of Revealing Light" style="whiteSpace=wrap;html=1;fillColor=#ffe6cc;strokeColor=#d79b00;" parent="rAXfOTA7ZakSZnf3as3c-19" vertex="1">
          <mxGeometry x="20" y="110" width="120" height="60" as="geometry" />
        </mxCell>
        <mxCell id="rAXfOTA7ZakSZnf3as3c-21" value="Performapal Kuribohble" style="whiteSpace=wrap;html=1;fillColor=#ffe6cc;strokeColor=#d79b00;" parent="rAXfOTA7ZakSZnf3as3c-19" vertex="1">
          <mxGeometry x="20" y="40" width="120" height="60" as="geometry" />
        </mxCell>
        <mxCell id="rAXfOTA7ZakSZnf3as3c-22" value="Scrap Iron Scarecrow" style="whiteSpace=wrap;html=1;fillColor=#ffe6cc;strokeColor=#d79b00;" parent="rAXfOTA7ZakSZnf3as3c-19" vertex="1">
          <mxGeometry x="20" y="180" width="120" height="60" as="geometry" />
        </mxCell>
        <mxCell id="rAXfOTA7ZakSZnf3as3c-23" value="Threatening Roar" style="whiteSpace=wrap;html=1;fillColor=#ffe6cc;strokeColor=#d79b00;" parent="rAXfOTA7ZakSZnf3as3c-19" vertex="1">
          <mxGeometry x="20" y="240" width="120" height="60" as="geometry" />
        </mxCell>
        <mxCell id="rAXfOTA7ZakSZnf3as3c-25" style="edgeStyle=orthogonalEdgeStyle;rounded=0;orthogonalLoop=1;jettySize=auto;html=1;entryX=1;entryY=0.5;entryDx=0;entryDy=0;" parent="1" source="rAXfOTA7ZakSZnf3as3c-26" target="rAXfOTA7ZakSZnf3as3c-18" edge="1">
          <mxGeometry relative="1" as="geometry" />
        </mxCell>
        <mxCell id="rAXfOTA7ZakSZnf3as3c-26" value="Photon Lizard" style="whiteSpace=wrap;html=1;" parent="1" vertex="1">
          <mxGeometry x="420" y="80" width="120" height="60" as="geometry" />
        </mxCell>
        <mxCell id="DOzGVIViS020-7u8Uz_g-1" value="No-backrow Lock" style="swimlane;" parent="1" vertex="1">
          <mxGeometry x="220" y="180" width="160" height="120" as="geometry" />
        </mxCell>
        <mxCell id="rAXfOTA7ZakSZnf3as3c-24" value="Performapal Rainbow-Five Magician" style="whiteSpace=wrap;html=1;fillColor=#ffe6cc;strokeColor=#d79b00;" parent="DOzGVIViS020-7u8Uz_g-1" vertex="1">
          <mxGeometry x="20" y="40" width="120" height="60" as="geometry" />
        </mxCell>
        <mxCell id="rAXfOTA7ZakSZnf3as3c-27" style="edgeStyle=orthogonalEdgeStyle;rounded=0;orthogonalLoop=1;jettySize=auto;html=1;entryX=1;entryY=0.5;entryDx=0;entryDy=0;" parent="DOzGVIViS020-7u8Uz_g-1" source="rAXfOTA7ZakSZnf3as3c-28" target="rAXfOTA7ZakSZnf3as3c-24" edge="1">
          <mxGeometry relative="1" as="geometry" />
        </mxCell>
        <mxCell id="rAXfOTA7ZakSZnf3as3c-28" value="Performapal Skullcrobat Joker" style="whiteSpace=wrap;html=1;fillColor=#ffe6cc;strokeColor=#d79b00;" parent="DOzGVIViS020-7u8Uz_g-1" vertex="1">
          <mxGeometry x="200" y="40" width="120" height="60" as="geometry" />
        </mxCell>
        <mxCell id="dWCkHnci0wjsMXQ-FrML-1" value="Power of the Guardians" style="whiteSpace=wrap;html=1;fillColor=#ffe6cc;strokeColor=#d79b00;" parent="1" vertex="1">
          <mxGeometry x="240" y="320" width="120" height="60" as="geometry" />
        </mxCell>
      </root>
    </mxGraphModel>
  </diagram>
  <diagram id="HICYTY_WnGkBhufambNa" name="Trap">
    <mxGraphModel dx="1369" dy="844" grid="1" gridSize="10" guides="1" tooltips="1" connect="1" arrows="1" fold="1" page="1" pageScale="1" pageWidth="850" pageHeight="1100" math="0" shadow="0">
      <root>
        <mxCell id="0" />
        <mxCell id="1" parent="0" />
        <mxCell id="QJDfiZRoA8MB2LWT1q32-1" value="Junk Collector" style="whiteSpace=wrap;html=1;fillColor=#ffe6cc;strokeColor=#d79b00;" parent="1" vertex="1">
          <mxGeometry x="40" y="330" width="120" height="60" as="geometry" />
        </mxCell>
        <mxCell id="QJDfiZRoA8MB2LWT1q32-2" style="edgeStyle=orthogonalEdgeStyle;rounded=0;orthogonalLoop=1;jettySize=auto;html=1;entryX=0;entryY=0.5;entryDx=0;entryDy=0;" parent="1" source="QJDfiZRoA8MB2LWT1q32-3" target="QJDfiZRoA8MB2LWT1q32-8" edge="1">
          <mxGeometry relative="1" as="geometry" />
        </mxCell>
        <mxCell id="QJDfiZRoA8MB2LWT1q32-3" value="Eldlich the Golden Lord" style="whiteSpace=wrap;html=1;fillColor=#e1d5e7;strokeColor=#9673a6;" parent="1" vertex="1">
          <mxGeometry x="40" y="200" width="120" height="60" as="geometry" />
        </mxCell>
        <mxCell id="QJDfiZRoA8MB2LWT1q32-4" value="Lord of Prisons" style="whiteSpace=wrap;html=1;fillColor=#e1d5e7;strokeColor=#9673a6;" parent="1" vertex="1">
          <mxGeometry x="40" y="40" width="120" height="60" as="geometry" />
        </mxCell>
        <mxCell id="QJDfiZRoA8MB2LWT1q32-5" style="edgeStyle=orthogonalEdgeStyle;rounded=0;orthogonalLoop=1;jettySize=auto;html=1;" parent="1" source="QJDfiZRoA8MB2LWT1q32-6" target="QJDfiZRoA8MB2LWT1q32-3" edge="1">
          <mxGeometry relative="1" as="geometry" />
        </mxCell>
        <mxCell id="QJDfiZRoA8MB2LWT1q32-6" value="Foolish Burial" style="whiteSpace=wrap;html=1;fillColor=#e1d5e7;strokeColor=#9673a6;" parent="1" vertex="1">
          <mxGeometry x="40" y="120" width="120" height="60" as="geometry" />
        </mxCell>
        <mxCell id="QJDfiZRoA8MB2LWT1q32-7" value="Jar of Greed" style="whiteSpace=wrap;html=1;fillColor=#dae8fc;strokeColor=#6c8ebf;" parent="1" vertex="1">
          <mxGeometry x="320" y="40" width="120" height="60" as="geometry" />
        </mxCell>
        <mxCell id="QJDfiZRoA8MB2LWT1q32-8" value="Torrential Tribute" style="whiteSpace=wrap;html=1;fillColor=#dae8fc;strokeColor=#6c8ebf;" parent="1" vertex="1">
          <mxGeometry x="178.5" y="200" width="120" height="60" as="geometry" />
        </mxCell>
        <mxCell id="al7HE_oR9A0Hs1WTS6SA-1" value="Heavy Storm Duster" style="whiteSpace=wrap;html=1;fillColor=#ffe6cc;strokeColor=#d79b00;" parent="1" vertex="1">
          <mxGeometry x="180" y="330" width="120" height="60" as="geometry" />
        </mxCell>
        <mxCell id="fLGYMQqxg9ot6y7gQTgD-2" style="edgeStyle=orthogonalEdgeStyle;rounded=0;orthogonalLoop=1;jettySize=auto;html=1;" parent="1" source="fLGYMQqxg9ot6y7gQTgD-1" target="QJDfiZRoA8MB2LWT1q32-4" edge="1">
          <mxGeometry relative="1" as="geometry" />
        </mxCell>
        <mxCell id="fLGYMQqxg9ot6y7gQTgD-1" value="Scrap Iron Scarecrow" style="whiteSpace=wrap;html=1;fillColor=#ffe6cc;strokeColor=#d79b00;" parent="1" vertex="1">
          <mxGeometry x="180" y="40" width="120" height="60" as="geometry" />
        </mxCell>
      </root>
    </mxGraphModel>
  </diagram>
</mxfile>
